<svg width="60" height="60" viewBox="0 0 60 60" fill="none" xmlns="http://www.w3.org/2000/svg">
<path fill-rule="evenodd" clip-rule="evenodd" d="M27.1038 58.9574L5.54128 45.3873C4.29878 44.6054 3.67753 44.2144 3.33877 43.6009C3 42.9875 3 42.2534 3 40.7854V19.6034C3 18.7003 3 18.075 3.07885 17.5846L28.6406 33.9191V59.8804C28.2224 59.6614 27.7335 59.3537 27.1038 58.9574ZM31.3594 59.8804C31.7776 59.6614 32.2665 59.3537 32.8962 58.9574L54.4587 45.3873C55.7012 44.6054 56.3225 44.2144 56.6612 43.6009C57 42.9875 57 42.2534 57 40.7854V19.6034C57 18.7003 57 18.075 56.9211 17.5846L31.3594 33.9191V59.8804ZM55.1889 15.4651L30 31.5613L4.81108 15.4651C5.02708 15.325 5.2693 15.1726 5.54128 15.0014L27.1038 1.43132C28.5117 0.545261 29.2157 0.102234 30 0.102234C30.7843 0.102234 31.4883 0.545262 32.8962 1.43132L54.4587 15.0014C54.7307 15.1726 54.9729 15.325 55.1889 15.4651Z" fill="#474747"/>
</svg>
