<svg width="14" height="14" viewBox="0 0 14 14" fill="none" xmlns="http://www.w3.org/2000/svg">
<path d="M1.93691 10.1036L1.57917 9.74581C1.35136 9.51801 1.35136 9.14866 1.57917 8.92085L3.08754 7.41248C3.31535 7.18467 3.68469 7.18467 3.9125 7.41248L4.95807 8.45805C5.13242 8.6324 5.39877 8.67562 5.61931 8.56536C6.89419 7.92791 7.92794 6.89417 8.56538 5.61929C8.67564 5.39875 8.63242 5.1324 8.45807 4.95805L7.4125 3.91248C7.18469 3.68467 7.18469 3.31533 7.4125 3.08752L8.92088 1.57914C9.14868 1.35134 9.51803 1.35134 9.74583 1.57915L10.1036 1.93688C11.3352 3.16851 11.4738 5.11834 10.4287 6.51176L9.90002 7.21667C9.13723 8.23373 8.23375 9.13721 7.21669 9.9L6.51178 10.4287C5.11836 11.4737 3.16853 11.3352 1.93691 10.1036Z" fill="white"/>
</svg>
